<svg version="1.1" xmlns="http://www.w3.org/2000/svg" viewBox="0 0 488.6971385457563 396.34615862204726" width="977.3942770915125" height="792.6923172440945">
  <!-- svg-source:excalidraw -->
  
  <defs>
    <style class="style-fonts">
      @font-face {
        font-family: "Virgil";
        src: url("https://excalidraw.com/Virgil.woff2");
      }
      @font-face {
        font-family: "Cascadia";
        src: url("https://excalidraw.com/Cascadia.woff2");
      }
    </style>
    
  </defs>
  <rect x="0" y="0" width="488.6971385457563" height="396.34615862204726" fill="#ffffff"></rect><g stroke-linecap="round" transform="translate(343.86158286439775 85.60049823484758) rotate(0 67.41777784067926 62.77769686054012)"><path d="M31.39 0 C58.78 1.51, 84.03 -0.74, 103.45 0 M31.39 0 C51.52 -0.3, 71.36 0.06, 103.45 0 M103.45 0 C123.38 -1.44, 136.77 10.64, 134.84 31.39 M103.45 0 C122.45 2.1, 134.1 10.35, 134.84 31.39 M134.84 31.39 C133.78 57.81, 135.42 80.62, 134.84 94.17 M134.84 31.39 C135.11 54.91, 134.29 77.63, 134.84 94.17 M134.84 94.17 C136.03 116.62, 124.57 124.6, 103.45 125.56 M134.84 94.17 C136.36 114.37, 124.17 126.04, 103.45 125.56 M103.45 125.56 C87.4 125.6, 70.76 126.02, 31.39 125.56 M103.45 125.56 C86.24 125.21, 68.6 125.4, 31.39 125.56 M31.39 125.56 C8.76 126.41, 1.68 114.94, 0 94.17 M31.39 125.56 C10.12 125.3, 0.36 116.74, 0 94.17 M0 94.17 C1.32 73.11, -0.92 51.22, 0 31.39 M0 94.17 C-0.91 80.64, -1.06 69.3, 0 31.39 M0 31.39 C0.88 10.62, 12.2 -1.49, 31.39 0 M0 31.39 C0.56 8.6, 8.6 0.9, 31.39 0" stroke="#1e1e1e" stroke-width="1" fill="none"></path></g><g transform="translate(381.07939427441295 135.8781950953877) rotate(0 30.199966430664062 12.5)"><text x="30.199966430664062" y="0" font-family="Virgil, Segoe UI Emoji" font-size="20px" fill="#1e1e1e" text-anchor="middle" style="white-space: pre;" direction="ltr" dominant-baseline="text-before-edge">server</text></g><g stroke-linecap="round" transform="translate(59.550560663913984 154.41763032037477) rotate(0 43.660963037866 24.5)"><path d="M37.48 0.26 C45.34 -0.65, 56.44 0.83, 63.99 3.13 C71.54 5.44, 78.94 9.77, 82.78 14.07 C86.62 18.37, 88.5 24.2, 87.04 28.93 C85.58 33.67, 80.24 39.17, 74.02 42.47 C67.79 45.77, 58.27 48.16, 49.7 48.73 C41.12 49.29, 30.14 48.1, 22.58 45.88 C15.03 43.66, 8.01 39.75, 4.34 35.42 C0.67 31.1, -0.91 24.79, 0.58 19.94 C2.08 15.1, 6.98 9.69, 13.32 6.36 C19.66 3.03, 34.26 0.95, 38.61 -0.02 C42.96 -0.98, 39.4 0.19, 39.44 0.57 M37.66 -0.16 C45.74 -0.98, 57.39 0.84, 64.9 3.28 C72.42 5.73, 79.04 10.16, 82.74 14.51 C86.44 18.87, 88.61 24.71, 87.1 29.44 C85.59 34.16, 80.11 39.7, 73.67 42.86 C67.23 46.02, 56.87 47.99, 48.48 48.41 C40.08 48.82, 30.77 47.68, 23.3 45.33 C15.84 42.98, 7.42 38.45, 3.67 34.31 C-0.08 30.16, -0.81 25.08, 0.83 20.47 C2.46 15.86, 7.14 10.01, 13.47 6.66 C19.8 3.32, 34.69 1.48, 38.81 0.41 C42.93 -0.67, 38.27 -0.17, 38.21 0.19" stroke="#1e1e1e" stroke-width="1" fill="none"></path></g><g transform="translate(82.45858629933537 166.59351418130439) rotate(0 20.879974365234375 12.5)"><text x="20.879974365234375" y="0" font-family="Virgil, Segoe UI Emoji" font-size="20px" fill="#1e1e1e" text-anchor="middle" style="white-space: pre;" direction="ltr" dominant-baseline="text-before-edge">user</text></g><g stroke-linecap="round"><g transform="translate(154.71214582075822 177.383795210828) rotate(0 87.4474468702328 0.2852227195572823)"><path d="M-0.04 0 C29.05 0.09, 145.56 0.47, 174.68 0.57 M0.21 -0.13 C29.33 -0.03, 145.81 0.57, 174.94 0.7" stroke="#1e1e1e" stroke-width="1" fill="none"></path></g><g transform="translate(154.71214582075822 177.383795210828) rotate(0 87.4474468702328 0.2852227195572823)"><path d="M146.7 10.82 C157.16 6.8, 167.42 3.06, 174.94 0.7 M146.7 10.82 C153.02 8.7, 159.02 6.39, 174.94 0.7" stroke="#1e1e1e" stroke-width="1" fill="none"></path></g><g transform="translate(154.71214582075822 177.383795210828) rotate(0 87.4474468702328 0.2852227195572823)"><path d="M146.8 -9.7 C157.23 -6.11, 167.46 -2.24, 174.94 0.7 M146.8 -9.7 C153.09 -7.32, 159.07 -5.11, 174.94 0.7" stroke="#1e1e1e" stroke-width="1" fill="none"></path></g></g><mask></mask><g transform="translate(195.81434615390265 181.78277999740305) rotate(0 37.4599609375 12.5)"><text x="0" y="0" font-family="Virgil, Segoe UI Emoji" font-size="20px" fill="#1e1e1e" text-anchor="start" style="white-space: pre;" direction="ltr" dominant-baseline="text-before-edge">request</text></g><g stroke-linecap="round"><g transform="translate(322.20713122467794 150.06852617527545) rotate(0 -82.4511159112028 1.4223797345476896)"><path d="M0.07 0.05 C-27.45 0.54, -137.46 2.43, -164.97 2.9 M-0.08 -0.06 C-27.57 0.38, -137.25 2.13, -164.68 2.65" stroke="#1e1e1e" stroke-width="1" fill="none"></path></g><g transform="translate(322.20713122467794 150.06852617527545) rotate(0 -82.4511159112028 1.4223797345476896)"><path d="M-136.67 -8.1 C-147.58 -4.08, -158.62 0.07, -164.68 2.65 M-136.67 -8.1 C-145.25 -4.95, -153.74 -1.66, -164.68 2.65" stroke="#1e1e1e" stroke-width="1" fill="none"></path></g><g transform="translate(322.20713122467794 150.06852617527545) rotate(0 -82.4511159112028 1.4223797345476896)"><path d="M-136.32 12.42 C-147.36 8.38, -158.54 4.48, -164.68 2.65 M-136.32 12.42 C-145.02 9.31, -153.61 6.33, -164.68 2.65" stroke="#1e1e1e" stroke-width="1" fill="none"></path></g></g><mask></mask><g stroke-linecap="round" transform="translate(344.1281265300835 15.694979514438614) rotate(0 35.98450546612821 30)"><path d="M15 0 C29.32 1.09, 42.1 0.44, 56.97 0 M15 0 C29.9 -0.25, 42.47 0.61, 56.97 0 M56.97 0 C68.43 0.16, 73.34 6.59, 71.97 15 M56.97 0 C68.56 0.5, 72.67 5.14, 71.97 15 M71.97 15 C70.79 20.29, 72 29.92, 71.97 45 M71.97 15 C71.57 20.57, 72.21 26.53, 71.97 45 M71.97 45 C70.6 56.12, 66.36 60.27, 56.97 60 M71.97 45 C71.14 53.94, 66.28 58.18, 56.97 60 M56.97 60 C39.57 59.82, 27.17 61.91, 15 60 M56.97 60 C48.08 60.73, 39.08 60.28, 15 60 M15 60 C3.11 60.99, -0.6 54.19, 0 45 M15 60 C4.62 58.01, -0.69 56.36, 0 45 M0 45 C-0.33 37.81, -0.43 27.91, 0 15 M0 45 C1 36.72, 0.4 29.56, 0 15 M0 15 C0.9 6.5, 4.17 -0.75, 15 0 M0 15 C0.25 6.11, 6.49 0.32, 15 0" stroke="#1e1e1e" stroke-width="1" fill="none"></path></g><g transform="translate(352.91265030675856 33.194979514438614) rotate(0 27.199981689453125 12.5)"><text x="27.199981689453125" y="0" font-family="Virgil, Segoe UI Emoji" font-size="20px" fill="#1e1e1e" text-anchor="middle" style="white-space: pre;" direction="ltr" dominant-baseline="text-before-edge">HTML</text></g><g stroke-linecap="round" transform="translate(30.148743283978547 10) rotate(0 35.98450546612827 30.000000000000057)"><path d="M15 0 C28.85 -1.42, 42.71 -1.78, 56.97 0 M15 0 C24.97 0.91, 35.5 1.01, 56.97 0 M56.97 0 C65.7 1.37, 73.83 6.17, 71.97 15 M56.97 0 C65.24 0.15, 69.99 3.3, 71.97 15 M71.97 15 C73.12 21.08, 73.42 29.11, 71.97 45 M71.97 15 C72.61 23.79, 71.11 35.2, 71.97 45 M71.97 45 C73.47 55.11, 66.96 59.35, 56.97 60 M71.97 45 C73.71 53.39, 68.65 59.82, 56.97 60 M56.97 60 C46.39 62.28, 35.44 60.67, 15 60 M56.97 60 C48.16 60.53, 39.25 59.05, 15 60 M15 60 C3.78 61.81, -1.87 55.36, 0 45 M15 60 C5.14 61.73, -0.83 56.79, 0 45 M0 45 C0.91 37.71, -1.21 33.83, 0 15 M0 45 C0.3 36.25, 0.17 27.38, 0 15 M0 15 C0.49 4.4, 5.73 -1.46, 15 0 M0 15 C0.51 4.41, 3.42 1.68, 15 0" stroke="#1e1e1e" stroke-width="1" fill="none"></path></g><g transform="translate(38.933267060653634 27.5) rotate(0 27.199981689453125 12.5)"><text x="27.199981689453125" y="0" font-family="Virgil, Segoe UI Emoji" font-size="20px" fill="#1e1e1e" text-anchor="middle" style="white-space: pre;" direction="ltr" dominant-baseline="text-before-edge">HTML</text></g><g stroke-linecap="round" transform="translate(421.7302637395286 17.036752774093202) rotate(0 27.0386336865638 30.000000000000057)"><path d="M13.52 0 C21.93 0.39, 29.44 -1.71, 40.56 0 M13.52 0 C18.96 -0.75, 24.8 0.48, 40.56 0 M40.56 0 C50.04 0.24, 55.07 2.68, 54.08 13.52 M40.56 0 C49.73 -1.72, 55 5.51, 54.08 13.52 M54.08 13.52 C56.18 25.66, 55 37.37, 54.08 46.48 M54.08 13.52 C54.26 20.87, 53.56 29.53, 54.08 46.48 M54.08 46.48 C54.14 57.31, 48.91 59.4, 40.56 60 M54.08 46.48 C54.8 57.5, 48.74 59.55, 40.56 60 M40.56 60 C34.61 60.98, 26.15 60.89, 13.52 60 M40.56 60 C31.15 60.32, 22.43 59.33, 13.52 60 M13.52 60 C4.96 61.76, 1.52 56.77, 0 46.48 M13.52 60 C4.5 61.29, 0.31 56.14, 0 46.48 M0 46.48 C0.34 34.82, 1.08 22.21, 0 13.52 M0 46.48 C0.31 38.19, 1.04 29.95, 0 13.52 M0 13.52 C1.28 2.95, 5.87 -0.93, 13.52 0 M0 13.52 C1.24 4.44, 2.82 -2.1, 13.52 0" stroke="#1e1e1e" stroke-width="1" fill="none"></path></g><g transform="translate(436.3489068865416 34.5367527740932) rotate(0 12.419990539550781 12.500000000000057)"><text x="12.419990539550781" y="0" font-family="Virgil, Segoe UI Emoji" font-size="20px" fill="#1e1e1e" text-anchor="middle" style="white-space: pre;" direction="ltr" dominant-baseline="text-before-edge">JS</text></g><g stroke-linecap="round" transform="translate(107.75088049342367 11.341773259654587) rotate(0 27.038633686563855 30)"><path d="M13.52 0 C20.83 -1.56, 29.11 -1.67, 40.56 0 M13.52 0 C18.99 0.53, 25 0.52, 40.56 0 M40.56 0 C51.43 1.17, 52.57 4.64, 54.08 13.52 M40.56 0 C47.59 -1.7, 52.44 3.61, 54.08 13.52 M54.08 13.52 C55.86 25.26, 54.73 36.71, 54.08 46.48 M54.08 13.52 C53.34 23.12, 55.02 31.05, 54.08 46.48 M54.08 46.48 C54.07 54.84, 51.09 58.6, 40.56 60 M54.08 46.48 C55.76 55.31, 48.51 61.72, 40.56 60 M40.56 60 C29.72 60.54, 17.45 59.74, 13.52 60 M40.56 60 C32.59 59.3, 24.83 61.07, 13.52 60 M13.52 60 C2.63 60.36, 0.12 57, 0 46.48 M13.52 60 C3.67 61.79, -2.21 54.49, 0 46.48 M0 46.48 C-1.47 38.66, -0.02 29.03, 0 13.52 M0 46.48 C0.11 35.16, 0.13 22.14, 0 13.52 M0 13.52 C0.73 3.05, 4.95 -0.52, 13.52 0 M0 13.52 C-1.58 6.19, 2.66 -0.1, 13.52 0" stroke="#1e1e1e" stroke-width="1" fill="none"></path></g><g transform="translate(122.36952364043668 28.841773259654587) rotate(0 12.419990539550781 12.5)"><text x="12.419990539550781" y="0" font-family="Virgil, Segoe UI Emoji" font-size="20px" fill="#1e1e1e" text-anchor="middle" style="white-space: pre;" direction="ltr" dominant-baseline="text-before-edge">JS</text></g><g mask="url(#mask-D0a4W_HfTsQsKuKshVzmD)" stroke-linecap="round"><g transform="translate(101.97320625494979 72.93301052315167) rotate(0 0.24699383030451827 38.843009178047396)"><path d="M-0.08 -0.06 C0.01 12.9, 0.45 64.93, 0.58 77.9 M0.15 -0.22 C0.21 12.76, 0.39 64.64, 0.47 77.66" stroke="#1e1e1e" stroke-width="1" fill="none"></path></g><g transform="translate(101.97320625494979 72.93301052315167) rotate(0 0.24699383030451827 38.843009178047396)"><path d="M-9.92 49.52 C-6.64 58.65, -3.09 67.93, 0.47 77.66 M-9.92 49.52 C-7.46 56.65, -4.74 63.45, 0.47 77.66" stroke="#1e1e1e" stroke-width="1" fill="none"></path></g><g transform="translate(101.97320625494979 72.93301052315167) rotate(0 0.24699383030451827 38.843009178047396)"><path d="M10.6 49.42 C7.24 58.57, 4.15 67.88, 0.47 77.66 M10.6 49.42 C7.96 56.59, 5.58 63.41, 0.47 77.66" stroke="#1e1e1e" stroke-width="1" fill="none"></path></g></g><mask id="mask-D0a4W_HfTsQsKuKshVzmD"><rect x="0" y="0" fill="#fff" width="202.5396115445311" height="250.79707886148196"></rect><rect x="10.406479090170137" y="99.36504469231659" fill="#000" width="183.69985961914062" height="25" opacity="1"></rect></mask><g transform="translate(10.406479090170137 99.36504469231681) rotate(0 91.81372099508417 12.41097500888236)"><text x="91.84992980957031" y="0" font-family="Virgil, Segoe UI Emoji" font-size="20px" fill="#1e1e1e" text-anchor="middle" style="white-space: pre;" direction="ltr" dominant-baseline="text-before-edge">Download, Execute</text></g><g stroke-linecap="round" transform="translate(128.13224584475222 250.06682475155992) rotate(0 106.35758620009358 68.13966693524367)"><path d="M32 0 C75.82 -1.67, 118.36 -1.69, 180.72 0 M32 0 C75.59 -0.86, 117.3 0.05, 180.72 0 M180.72 0 C204.02 -0.05, 212.83 10.47, 212.72 32 M180.72 0 C202.53 1.55, 211.42 11.33, 212.72 32 M212.72 32 C213.36 52.34, 214.77 75.07, 212.72 104.28 M212.72 32 C211.54 59.94, 211.5 90.01, 212.72 104.28 M212.72 104.28 C214.67 124.36, 202.19 136.12, 180.72 136.28 M212.72 104.28 C212.67 123.55, 202.95 136.2, 180.72 136.28 M180.72 136.28 C145.02 135.61, 110.17 134.4, 32 136.28 M180.72 136.28 C143.66 136.35, 106.64 136.38, 32 136.28 M32 136.28 C9.93 137.04, 1.81 127.31, 0 104.28 M32 136.28 C12.3 137.87, -2.04 126.25, 0 104.28 M0 104.28 C-0.49 78.32, 0.35 53.88, 0 32 M0 104.28 C0.49 88.31, 0.39 72.58, 0 32 M0 32 C1.94 10.66, 10.98 -1.8, 32 0 M0 32 C-1.97 12.18, 8.45 1.66, 32 0" stroke="#1e1e1e" stroke-width="1" fill="none"></path></g><g transform="translate(199.10987293840049 305.7064916868036) rotate(0 35.37995910644531 12.5)"><text x="35.37995910644531" y="0" font-family="Virgil, Segoe UI Emoji" font-size="20px" fill="#1e1e1e" text-anchor="middle" style="white-space: pre;" direction="ltr" dominant-baseline="text-before-edge">website</text></g></svg>