<svg version="1.1" xmlns="http://www.w3.org/2000/svg" viewBox="0 0 481.7658516529682 449.5097854320983" width="963.5317033059364" height="899.0195708641966">
  <!-- svg-source:excalidraw -->
  
  <defs>
    <style class="style-fonts">
      @font-face {
        font-family: "Virgil";
        src: url("https://excalidraw.com/Virgil.woff2");
      }
      @font-face {
        font-family: "Cascadia";
        src: url("https://excalidraw.com/Cascadia.woff2");
      }
    </style>
    
  </defs>
  <rect x="0" y="0" width="481.7658516529682" height="449.5097854320983" fill="#ffffff"></rect><g stroke-linecap="round" transform="translate(294.3110222004839 138.7641250448986) rotate(0 67.41777784067926 62.77769686054012)"><path d="M31.39 0 C47.9 1.58, 61.74 -1.01, 103.45 0 M31.39 0 C48.07 -1.49, 66.13 -0.61, 103.45 0 M103.45 0 C122.9 1.51, 132.89 9.28, 134.84 31.39 M103.45 0 C124.17 -2, 133.88 8.92, 134.84 31.39 M134.84 31.39 C135.97 57.08, 135.66 80.98, 134.84 94.17 M134.84 31.39 C134.54 51.1, 134.89 69.63, 134.84 94.17 M134.84 94.17 C135.28 113.83, 124.83 125.39, 103.45 125.56 M134.84 94.17 C133.67 116.55, 126.62 126.33, 103.45 125.56 M103.45 125.56 C76.03 126.56, 45.4 125.98, 31.39 125.56 M103.45 125.56 C88.59 125.01, 70.98 125.31, 31.39 125.56 M31.39 125.56 C9.98 123.72, -0.38 114.63, 0 94.17 M31.39 125.56 C8.37 127.35, 1.32 116.58, 0 94.17 M0 94.17 C-0.18 73.18, 0.2 48.77, 0 31.39 M0 94.17 C-0.57 73.58, -1.35 54.41, 0 31.39 M0 31.39 C1.91 10.56, 8.53 -0.23, 31.39 0 M0 31.39 C-0.6 12.05, 12.14 -2.23, 31.39 0" stroke="#1e1e1e" stroke-width="1" fill="none"></path></g><g transform="translate(331.5288336104991 189.04182190543872) rotate(0 30.199966430664062 12.5)"><text x="30.199966430664062" y="0" font-family="Virgil, Segoe UI Emoji" font-size="20px" fill="#1e1e1e" text-anchor="middle" style="white-space: pre;" direction="ltr" dominant-baseline="text-before-edge">server</text></g><g stroke-linecap="round" transform="translate(10 207.5812571304258) rotate(0 43.66096303786594 24.5)"><path d="M36.46 0.03 C44.33 -1.08, 54.74 0.37, 62.36 2.47 C69.99 4.57, 78.04 8.49, 82.19 12.66 C86.34 16.82, 88.49 22.65, 87.25 27.45 C86.02 32.26, 80.85 37.99, 74.77 41.48 C68.7 44.98, 59.24 47.52, 50.81 48.43 C42.38 49.34, 31.77 49.01, 24.19 46.93 C16.6 44.86, 9.21 40.24, 5.28 35.99 C1.36 31.73, -0.55 26.12, 0.64 21.41 C1.83 16.69, 6.16 11.17, 12.41 7.7 C18.65 4.23, 33.47 1.83, 38.11 0.58 C42.76 -0.67, 40.14 -0.11, 40.25 0.19 M36.42 0.3 C44.24 -0.65, 54.84 0.81, 62.6 2.98 C70.36 5.15, 78.84 9.19, 82.99 13.33 C87.15 17.47, 88.75 23.08, 87.51 27.83 C86.27 32.58, 81.62 38.46, 75.57 41.81 C69.51 45.16, 59.74 47.26, 51.2 47.94 C42.65 48.62, 32.09 47.98, 24.28 45.9 C16.48 43.81, 8.22 39.6, 4.36 35.44 C0.49 31.28, -0.12 25.59, 1.11 20.94 C2.34 16.3, 5.91 11.11, 11.74 7.57 C17.57 4.03, 32 0.85, 36.09 -0.3 C40.18 -1.45, 36.23 0.07, 36.27 0.67" stroke="#1e1e1e" stroke-width="1" fill="none"></path></g><g transform="translate(32.90802563542138 219.7571409913554) rotate(0 20.879974365234375 12.5)"><text x="20.879974365234375" y="0" font-family="Virgil, Segoe UI Emoji" font-size="20px" fill="#1e1e1e" text-anchor="middle" style="white-space: pre;" direction="ltr" dominant-baseline="text-before-edge">user</text></g><g stroke-linecap="round"><g transform="translate(105.16158515684424 230.54742202087903) rotate(0 87.35761681120903 0.3514031290328603)"><path d="M-0.11 -0.09 C29.01 0.04, 145.69 0.69, 174.82 0.79 M0.11 0.19 C29.2 0.27, 145.56 0.51, 174.71 0.59" stroke="#1e1e1e" stroke-width="1" fill="none"></path></g><g transform="translate(105.16158515684424 230.54742202087903) rotate(0 87.35761681120903 0.3514031290328603)"><path d="M146.49 10.78 C156.37 7.18, 166.81 3.34, 174.71 0.59 M146.49 10.78 C152.18 8.8, 157.94 6.52, 174.71 0.59" stroke="#1e1e1e" stroke-width="1" fill="none"></path></g><g transform="translate(105.16158515684424 230.54742202087903) rotate(0 87.35761681120903 0.3514031290328603)"><path d="M146.54 -9.74 C156.41 -6.03, 166.83 -2.56, 174.71 0.59 M146.54 -9.74 C152.22 -7.51, 157.96 -5.58, 174.71 0.59" stroke="#1e1e1e" stroke-width="1" fill="none"></path></g></g><mask></mask><g transform="translate(146.26378548998855 234.94640680745408) rotate(0 37.4599609375 12.5)"><text x="0" y="0" font-family="Virgil, Segoe UI Emoji" font-size="20px" fill="#1e1e1e" text-anchor="start" style="white-space: pre;" direction="ltr" dominant-baseline="text-before-edge">request</text></g><g stroke-linecap="round"><g transform="translate(272.65657056076407 203.23215298532648) rotate(0 -82.481283061196 1.4448350350546662)"><path d="M0 0.12 C-27.48 0.59, -137.49 2.27, -164.96 2.73 M-0.19 0.04 C-27.6 0.53, -137.21 2.35, -164.67 2.85" stroke="#1e1e1e" stroke-width="1" fill="none"></path></g><g transform="translate(272.65657056076407 203.23215298532648) rotate(0 -82.481283061196 1.4448350350546662)"><path d="M-136.66 -7.9 C-142.8 -5.67, -149.66 -3.03, -164.67 2.85 M-136.66 -7.9 C-145.04 -4.8, -153.13 -1.69, -164.67 2.85" stroke="#1e1e1e" stroke-width="1" fill="none"></path></g><g transform="translate(272.65657056076407 203.23215298532648) rotate(0 -82.481283061196 1.4448350350546662)"><path d="M-136.31 12.62 C-142.51 10.19, -149.45 8.18, -164.67 2.85 M-136.31 12.62 C-144.77 9.7, -152.96 6.79, -164.67 2.85" stroke="#1e1e1e" stroke-width="1" fill="none"></path></g></g><mask></mask><g stroke-linecap="round" transform="translate(78.58168518083812 303.23045156161095) rotate(0 106.35758620009358 68.13966693524367)"><path d="M32 0 C66.97 -0.05, 105.35 2.05, 180.72 0 M32 0 C76.72 -0.54, 120.95 -0.22, 180.72 0 M180.72 0 C202.59 -1.6, 213.18 9.78, 212.72 32 M180.72 0 C200.4 0.51, 211.27 11.19, 212.72 32 M212.72 32 C214.3 53.76, 214.13 73.65, 212.72 104.28 M212.72 32 C211.95 59.89, 212.13 87.06, 212.72 104.28 M212.72 104.28 C211.4 127.47, 201.92 134.49, 180.72 136.28 M212.72 104.28 C213.24 125.06, 199.94 135.84, 180.72 136.28 M180.72 136.28 C140.68 138.74, 99.39 138.95, 32 136.28 M180.72 136.28 C125.96 136.53, 70.67 137.75, 32 136.28 M32 136.28 C11.55 135.93, -1.84 123.7, 0 104.28 M32 136.28 C9.72 138.48, 0.11 123.39, 0 104.28 M0 104.28 C1.65 81.49, -1.78 61.09, 0 32 M0 104.28 C0.36 88.86, 0.41 72.72, 0 32 M0 32 C0.24 8.7, 11.64 1.53, 32 0 M0 32 C-0.27 8.42, 10.48 1.17, 32 0" stroke="#1e1e1e" stroke-width="1" fill="none"></path></g><g transform="translate(149.5593122744865 358.8701184968546) rotate(0 35.37995910644531 12.5)"><text x="35.37995910644531" y="0" font-family="Virgil, Segoe UI Emoji" font-size="20px" fill="#1e1e1e" text-anchor="middle" style="white-space: pre;" direction="ltr" dominant-baseline="text-before-edge">website</text></g><g stroke-linecap="round" transform="translate(251.20014923355416 10) rotate(0 110.28285120970702 54.63302522358259)"><path d="M27.32 0 C82.83 -1.1, 137.29 0.43, 193.25 0 M27.32 0 C79.72 1.08, 134.64 1.51, 193.25 0 M193.25 0 C211.43 -0.92, 220.59 9.57, 220.57 27.32 M193.25 0 C209.49 -1.79, 220.28 10.42, 220.57 27.32 M220.57 27.32 C219.29 49.53, 220.49 67.86, 220.57 81.95 M220.57 27.32 C220.92 49.59, 219.69 70.9, 220.57 81.95 M220.57 81.95 C219.89 101.11, 209.57 108.62, 193.25 109.27 M220.57 81.95 C220.47 101.31, 209.57 107.91, 193.25 109.27 M193.25 109.27 C148.7 107.24, 101 107.8, 27.32 109.27 M193.25 109.27 C139.9 111.12, 83.91 110.73, 27.32 109.27 M27.32 109.27 C10.44 109.94, -1.38 99.57, 0 81.95 M27.32 109.27 C10.77 109.41, 1.65 101.54, 0 81.95 M0 81.95 C-2.13 68.74, -0.59 54.26, 0 27.32 M0 81.95 C-0.04 64.47, -0.03 48.21, 0 27.32 M0 27.32 C0.22 8.61, 7.28 1.4, 27.32 0 M0 27.32 C1.17 7.96, 8.82 0.87, 27.32 0" stroke="#1e1e1e" stroke-width="1" fill="none"></path></g><g transform="translate(262.7330843666009 52.13302522358265) rotate(0 98.74991607666016 12.5)"><text x="98.74991607666016" y="0" font-family="Virgil, Segoe UI Emoji" font-size="20px" fill="#1e1e1e" text-anchor="middle" style="white-space: pre;" direction="ltr" dominant-baseline="text-before-edge">fully rendered HTML</text></g></svg>